<svg xmlns="http://www.w3.org/2000/svg" width="618" height="618" viewBox="0 0 618 618"><rect width="100%" height="100%" fill="#DDDDDD"/><path fill="#999999" d="m161.485 279.35-17.59 21.53-2.05 2.54q1.72-.86 3.71-1.33t4.28-.47q3.36 0 6.54 1.1 3.18 1.11 5.6 3.35 2.42 2.23 3.89 5.55 1.48 3.32 1.48 7.75 0 4.14-1.52 7.77t-4.26 6.33q-2.75 2.71-6.62 4.27-3.88 1.56-8.55 1.56-4.76 0-8.53-1.52t-6.44-4.24q-2.66-2.73-4.08-6.56-1.41-3.84-1.41-8.51 0-4.18 1.7-8.59t5.27-9.17l14.14-18.98q.74-.98 2.16-1.68 1.41-.7 3.26-.7zm-15.3 51.66q2.42 0 4.45-.82t3.49-2.29q1.45-1.48 2.27-3.47t.82-4.32q0-2.54-.78-4.57t-2.21-3.45q-1.44-1.41-3.45-2.15-2-.74-4.42-.74t-4.39.82-3.36 2.28q-1.4 1.45-2.18 3.44-.77 1.99-.77 4.29 0 2.46.67 4.49.68 2.02 2.01 3.46t3.3 2.23q1.97.8 4.55.8m55.64.05h10.66v7.58h-32.8v-7.58h12.01v-34.57q0-2.05.13-4.22l-8.53 7.13q-.74.58-1.46.72t-1.35.02q-.64-.12-1.13-.43t-.74-.68l-3.19-4.38 18.08-15.38h8.32zm39.56.32q2.51 0 4.39-.71 1.89-.72 3.18-1.99t1.95-3.04q.65-1.76.65-3.81 0-4.88-2.7-7.38-2.71-2.5-7.47-2.5-4.75 0-7.46 2.5-2.7 2.5-2.7 7.38 0 2.05.65 3.81.66 1.77 1.95 3.04t3.18 1.99q1.88.71 4.38.71m0-45.06q-2.25 0-3.89.7t-2.73 1.87q-1.08 1.16-1.6 2.68-.51 1.52-.51 3.2 0 1.76.43 3.42t1.46 2.96q1.02 1.29 2.7 2.07 1.68.77 4.14.77t4.15-.77q1.68-.78 2.7-2.07 1.03-1.3 1.46-2.96t.43-3.42q0-1.68-.54-3.2-.53-1.52-1.59-2.68-1.07-1.17-2.71-1.87t-3.9-.7m10.01 21.41q5.41 1.76 7.99 5.39 2.59 3.63 2.59 8.87 0 3.94-1.5 7.14t-4.2 5.45q-2.71 2.26-6.5 3.49t-8.39 1.23q-4.59 0-8.38-1.23t-6.5-3.49q-2.7-2.25-4.2-5.45t-1.5-7.14q0-5.24 2.59-8.87 2.58-3.63 7.99-5.39-4.3-1.81-6.46-5.13-2.15-3.32-2.15-7.99 0-3.37 1.37-6.28 1.38-2.91 3.84-5.06t5.88-3.36 7.52-1.21 7.53 1.21q3.42 1.21 5.88 3.36t3.83 5.06q1.38 2.91 1.38 6.28 0 4.67-2.15 7.99-2.16 3.32-6.46 5.13m76.83 17.34-5.37 5.29-13.9-13.9-14.02 13.98-5.37-5.29 14.02-14.06-13.36-13.37 5.33-5.33 13.36 13.37 13.29-13.29 5.41 5.33-13.33 13.33zm63.35-45.72-17.59 21.53-2.05 2.54q1.72-.86 3.71-1.33t4.28-.47q3.37 0 6.54 1.1 3.18 1.11 5.6 3.35 2.42 2.23 3.89 5.55 1.48 3.32 1.48 7.75 0 4.14-1.52 7.77-1.51 3.63-4.26 6.33-2.75 2.71-6.62 4.27-3.88 1.56-8.55 1.56-4.76 0-8.53-1.52t-6.44-4.24q-2.66-2.73-4.08-6.56-1.41-3.84-1.41-8.51 0-4.18 1.7-8.59t5.27-9.17l14.15-18.98q.73-.98 2.15-1.68 1.41-.7 3.26-.7zm-15.3 51.66q2.42 0 4.45-.82t3.49-2.29q1.45-1.48 2.27-3.47t.82-4.32q0-2.54-.78-4.57-.77-2.03-2.21-3.45-1.43-1.41-3.44-2.15t-4.43-.74-4.39.82-3.36 2.28q-1.39 1.45-2.17 3.44t-.78 4.29q0 2.46.67 4.49.68 2.02 2.01 3.46 1.34 1.44 3.3 2.23 1.97.8 4.55.8m55.64.05h10.66v7.58h-32.8v-7.58h12.01v-34.57q0-2.05.13-4.22l-8.53 7.13q-.74.58-1.46.72-.71.14-1.35.02-.63-.12-1.13-.43-.49-.31-.73-.68l-3.2-4.38 18.08-15.38h8.32zm39.57.32q2.5 0 4.38-.71 1.89-.72 3.18-1.99t1.95-3.04q.65-1.76.65-3.81 0-4.88-2.7-7.38-2.71-2.5-7.46-2.5-4.76 0-7.47 2.5-2.7 2.5-2.7 7.38 0 2.05.65 3.81.66 1.77 1.95 3.04t3.18 1.99q1.89.71 4.39.71m0-45.06q-2.26 0-3.9.7t-2.73 1.87q-1.08 1.16-1.59 2.68-.52 1.52-.52 3.2 0 1.76.43 3.42t1.46 2.96q1.02 1.29 2.71 2.07 1.68.77 4.14.77t4.14-.77q1.68-.78 2.7-2.07 1.03-1.3 1.46-2.96t.43-3.42q0-1.68-.53-3.2-.54-1.52-1.6-2.68-1.07-1.17-2.71-1.87t-3.89-.7m10 21.41q5.41 1.76 8 5.39 2.58 3.63 2.58 8.87 0 3.94-1.5 7.14-1.49 3.2-4.2 5.45-2.71 2.26-6.5 3.49t-8.38 1.23q-4.6 0-8.39-1.23t-6.5-3.49q-2.7-2.25-4.2-5.45t-1.5-7.14q0-5.24 2.59-8.87 2.58-3.63 7.99-5.39-4.3-1.81-6.46-5.13-2.15-3.32-2.15-7.99 0-3.37 1.38-6.28 1.37-2.91 3.83-5.06t5.88-3.36q3.43-1.21 7.53-1.21t7.52 1.21 5.88 3.36 3.84 5.06q1.37 2.91 1.37 6.28 0 4.67-2.15 7.99t-6.46 5.13"/><script xmlns=""/></svg>